<svg width="7.742523" height="4.004074" viewBox="0 0 7.74252 4.00407" fill="none" xmlns="http://www.w3.org/2000/svg" xmlns:xlink="http://www.w3.org/1999/xlink">
	<desc>
			Created with Pixso.
	</desc>
	<defs/>
	<path id="Vector (Граница)" d="M3.53 3.87C3.74 4.06 4.05 4.04 4.24 3.83C4.43 3.62 4.41 3.31 4.2 3.12L0.83 0.12C0.62 -0.06 0.31 -0.04 0.12 0.16C-0.06 0.37 -0.04 0.68 0.16 0.87L3.53 3.87Z" fill="#F7F7F7" fill-opacity="1.000000" fill-rule="evenodd"/>
	<path id="Vector (Граница)" d="M3.53 3.12L6.9 0.12C7.11 -0.06 7.42 -0.04 7.61 0.16C7.8 0.37 7.78 0.68 7.57 0.87L4.2 3.87C3.99 4.06 3.68 4.04 3.49 3.83C3.31 3.62 3.32 3.31 3.53 3.12Z" fill="#F7F7F7" fill-opacity="1.000000" fill-rule="evenodd"/>
</svg>
