<svg width="22.000000" height="22.000000" viewBox="0 0 22 22" fill="none" xmlns="http://www.w3.org/2000/svg" xmlns:xlink="http://www.w3.org/1999/xlink">
	<desc>
			Created with Pixso.
	</desc>
	<defs/>
	<path d="M11.12 0.54C11.33 0.91 11.32 1.37 11.07 1.72C10.34 2.79 9.91 4.08 9.91 5.47C9.91 9.12 12.87 12.08 16.52 12.08C17.91 12.08 19.2 11.65 20.27 10.92C20.62 10.67 21.08 10.66 21.45 10.87C21.81 11.08 22.03 11.49 21.99 11.92C21.51 17.56 16.78 22 11.01 22C4.93 22 0 17.06 0 10.98C0 5.21 4.43 0.48 10.07 0C10.5 -0.04 10.91 0.18 11.12 0.54ZM8.17 2.63C4.7 3.81 2.2 7.1 2.2 10.98C2.2 15.85 6.14 19.79 11.01 19.79C14.89 19.79 18.18 17.29 19.36 13.82C18.47 14.12 17.51 14.28 16.52 14.28C11.65 14.28 7.71 10.34 7.71 5.47C7.71 4.48 7.87 3.52 8.17 2.63Z" fill="#F7F7F7" fill-opacity="1.000000" fill-rule="evenodd"/>
</svg>
