<svg width="18.000000" height="18.000000" viewBox="0 0 18 18" fill="none" xmlns="http://www.w3.org/2000/svg" xmlns:xlink="http://www.w3.org/1999/xlink">
	<desc>
			Created with Pixso.
	</desc>
	<defs>
		<clipPath id="clip18_285">
			<rect width="18.000000" height="18.000000" fill="white" fill-opacity="0"/>
		</clipPath>
	</defs>
	<rect width="18.000000" height="18.000000" fill="#FFFFFF" fill-opacity="0"/>
	<g clip-path="url(#clip18_285)">
		<path d="M12.63 5.5L5.36 5.5C5.21 5.5 5.06 5.51 4.91 5.55C4.79 5.57 4.67 5.62 4.55 5.67C4.43 5.72 4.32 5.78 4.22 5.86C4.1 5.94 4 6.03 3.9 6.14C3.8 6.24 3.71 6.35 3.64 6.48C3.58 6.58 3.52 6.7 3.48 6.82C3.44 6.94 3.41 7.07 3.39 7.19C3.36 7.34 3.36 7.49 3.37 7.65L3.89 14.4C3.9 14.54 3.92 14.67 3.96 14.8C3.99 14.91 4.04 15.02 4.09 15.13C4.14 15.23 4.2 15.33 4.27 15.43C4.35 15.53 4.43 15.62 4.53 15.71C4.62 15.8 4.72 15.88 4.83 15.94C4.93 16.01 5.03 16.06 5.14 16.1C5.25 16.15 5.36 16.18 5.48 16.2C5.61 16.23 5.75 16.25 5.88 16.25L12.11 16.25C12.24 16.25 12.38 16.23 12.51 16.2C12.63 16.18 12.74 16.15 12.85 16.1C12.96 16.06 13.06 16.01 13.16 15.94C13.27 15.88 13.37 15.8 13.47 15.71C13.56 15.62 13.64 15.53 13.72 15.43C13.79 15.33 13.85 15.23 13.9 15.13C13.95 15.02 14 14.91 14.03 14.8C14.07 14.67 14.09 14.54 14.1 14.4L14.62 7.65C14.63 7.49 14.63 7.34 14.6 7.19C14.58 7.07 14.55 6.94 14.51 6.82C14.47 6.7 14.41 6.58 14.35 6.48C14.28 6.35 14.19 6.24 14.09 6.14C14 6.03 13.89 5.94 13.77 5.86C13.67 5.78 13.56 5.72 13.44 5.67C13.32 5.62 13.2 5.58 13.08 5.55C12.93 5.51 12.78 5.5 12.63 5.5ZM5.12 6.52C5.2 6.5 5.28 6.5 5.36 6.5L12.63 6.5C12.71 6.5 12.79 6.5 12.87 6.52C12.93 6.54 12.98 6.56 13.03 6.58C13.09 6.61 13.14 6.64 13.19 6.67C13.25 6.71 13.31 6.76 13.36 6.82C13.41 6.87 13.45 6.93 13.49 6.99C13.52 7.05 13.55 7.1 13.57 7.16C13.59 7.21 13.6 7.27 13.61 7.33C13.63 7.41 13.63 7.49 13.62 7.57L13.1 14.32C13.09 14.45 13.06 14.57 13.01 14.68C12.96 14.79 12.88 14.89 12.79 14.98C12.69 15.07 12.59 15.13 12.47 15.18C12.36 15.22 12.24 15.25 12.11 15.25L5.88 15.25C5.75 15.25 5.63 15.22 5.52 15.18C5.4 15.13 5.3 15.07 5.2 14.98C5.11 14.89 5.03 14.79 4.98 14.68C4.93 14.57 4.9 14.45 4.89 14.32L4.37 7.57C4.36 7.49 4.37 7.41 4.38 7.33C4.39 7.27 4.4 7.21 4.42 7.16C4.44 7.1 4.47 7.05 4.5 6.99C4.54 6.93 4.58 6.87 4.63 6.82C4.68 6.76 4.74 6.71 4.8 6.67C4.85 6.64 4.9 6.61 4.96 6.58C5.01 6.56 5.06 6.54 5.12 6.52Z" fill="#CDCDCD" fill-opacity="1.000000" fill-rule="evenodd"/>
		<path d="M3.37 3.25C3.09 3.25 2.87 3.47 2.87 3.75C2.87 4.03 3.09 4.25 3.37 4.25L14.62 4.25C14.9 4.25 15.12 4.03 15.12 3.75C15.12 3.47 14.9 3.25 14.62 3.25L3.37 3.25Z" fill="#CDCDCD" fill-opacity="1.000000" fill-rule="evenodd"/>
		<path d="M9.75 1L8.25 1C8.15 1 8.07 1 7.98 1.02C7.9 1.04 7.83 1.06 7.76 1.09C7.69 1.12 7.62 1.16 7.55 1.2C7.49 1.25 7.42 1.3 7.36 1.36C7.3 1.42 7.25 1.49 7.2 1.55C7.16 1.62 7.12 1.69 7.09 1.76C7.06 1.83 7.04 1.91 7.02 1.98C7 2.07 7 2.15 7 2.25L7 4.25L11 4.25L11 2.25C11 2.15 10.99 2.07 10.97 1.98C10.95 1.91 10.93 1.83 10.9 1.76C10.87 1.69 10.83 1.62 10.79 1.55C10.74 1.49 10.69 1.42 10.63 1.36C10.57 1.3 10.5 1.25 10.44 1.2C10.37 1.16 10.3 1.12 10.23 1.09C10.16 1.06 10.09 1.04 10.01 1.02C9.92 1 9.84 1 9.75 1ZM8.15 2.01L9.75 2C9.77 2.01 9.9 2.04 9.92 2.07C9.93 2.1 10 2.21 10 2.25L10 3.25L8 3.25L8 2.25C8.01 2.22 8.12 2.04 8.15 2.01Z" fill="#CDCDCD" fill-opacity="1.000000" fill-rule="evenodd"/>
		<path d="M11 9C11 8.72 10.78 8.5 10.5 8.5C10.22 8.5 10 8.72 10 9L10 12.75C10 13.03 10.22 13.25 10.5 13.25C10.78 13.25 11 13.03 11 12.75L11 9Z" fill="#CDCDCD" fill-opacity="1.000000" fill-rule="evenodd"/>
		<path d="M8 9C8 8.72 7.78 8.5 7.5 8.5C7.21 8.5 7 8.72 7 9L7 12.75C7 13.03 7.21 13.25 7.5 13.25C7.78 13.25 8 13.03 8 12.75L8 9Z" fill="#CDCDCD" fill-opacity="1.000000" fill-rule="evenodd"/>
	</g>
</svg>
