<svg width="18.000000" height="18.000000" viewBox="0 0 18 18" fill="none" xmlns="http://www.w3.org/2000/svg" xmlns:xlink="http://www.w3.org/1999/xlink">
	<desc>
			Created with Pixso.
	</desc>
	<defs/>
	<path d="M1.53 12.47C1.51 12.53 1.5 12.59 1.5 12.66L1.5 16C1.5 16.13 1.54 16.25 1.64 16.35C1.74 16.45 1.86 16.5 2 16.5L5.33 16.5C5.4 16.5 5.46 16.48 5.52 16.46C5.58 16.43 5.64 16.4 5.68 16.35L12.36 9.68L14.75 7.29C14.95 7.08 15.09 6.94 15.16 6.86C15.29 6.7 15.38 6.55 15.43 6.4C15.47 6.26 15.5 6.12 15.5 5.98C15.5 5.85 15.47 5.71 15.43 5.57C15.38 5.42 15.29 5.27 15.16 5.11C15.09 5.03 14.95 4.89 14.75 4.69L13.3 3.24C13.1 3.04 12.96 2.9 12.88 2.83C12.72 2.7 12.57 2.61 12.42 2.56C12.28 2.52 12.14 2.49 12 2.49C11.87 2.49 11.73 2.52 11.59 2.56C11.44 2.61 11.29 2.7 11.13 2.83C11.05 2.9 10.91 3.03 10.71 3.23L8.31 5.63L1.64 12.31C1.59 12.35 1.56 12.41 1.53 12.47ZM2.5 12.87L2.5 15.5L5.12 15.5L11.3 9.32L8.67 6.69L2.5 12.87ZM9.37 5.99L12 8.62L14.04 6.58C14.22 6.4 14.34 6.27 14.4 6.21C14.44 6.15 14.47 6.11 14.48 6.09C14.49 6.05 14.5 6.02 14.5 5.98C14.5 5.95 14.49 5.92 14.48 5.88C14.47 5.86 14.44 5.82 14.39 5.76C14.34 5.7 14.23 5.58 14.04 5.4L12.59 3.94C12.41 3.76 12.29 3.65 12.23 3.59C12.17 3.55 12.13 3.52 12.11 3.51C12.07 3.5 12.04 3.49 12 3.49C11.97 3.49 11.94 3.5 11.9 3.51C11.88 3.52 11.84 3.55 11.78 3.59C11.72 3.65 11.6 3.76 11.42 3.95L9.37 5.99Z" fill="#CDCDCD" fill-opacity="1.000000" fill-rule="evenodd"/>
</svg>
