<svg width="22.000000" height="22.000000" viewBox="0 0 22 22" fill="none" xmlns="http://www.w3.org/2000/svg" xmlns:xlink="http://www.w3.org/1999/xlink">
	<desc>
			Created with Pixso.
	</desc>
	<defs/>
	<path d="M12.15 1.15C12.15 0.51 11.63 0 11 0C10.36 0 9.84 0.51 9.84 1.15L9.84 1.73C9.84 2.37 10.36 2.89 11 2.89C11.63 2.89 12.15 2.37 12.15 1.73L12.15 1.15ZM18.77 4.85C19.23 4.4 19.23 3.67 18.77 3.22C18.32 2.76 17.59 2.76 17.14 3.22L16.73 3.63C16.27 4.08 16.27 4.81 16.73 5.27C17.18 5.72 17.91 5.72 18.36 5.27L18.77 4.85ZM4.85 3.22C4.4 2.76 3.67 2.76 3.22 3.22C2.76 3.67 2.76 4.4 3.22 4.85L3.63 5.27C4.08 5.72 4.81 5.72 5.26 5.27C5.72 4.81 5.72 4.08 5.26 3.63L4.85 3.22ZM1.15 9.84C0.51 9.84 0 10.36 0 11C0 11.63 0.51 12.15 1.15 12.15L1.73 12.15C2.37 12.15 2.89 11.63 2.89 11C2.89 10.36 2.37 9.84 1.73 9.84L1.15 9.84ZM20.26 9.84C19.62 9.84 19.1 10.36 19.1 11C19.1 11.63 19.62 12.15 20.26 12.15L20.84 12.15C21.48 12.15 22 11.63 22 11C22 10.36 21.48 9.84 20.84 9.84L20.26 9.84ZM5.26 18.36C5.72 17.91 5.72 17.18 5.26 16.73C4.81 16.27 4.08 16.27 3.63 16.73L3.22 17.14C2.76 17.59 2.76 18.32 3.22 18.77C3.67 19.23 4.4 19.23 4.85 18.77L5.26 18.36ZM18.36 16.73C17.91 16.27 17.18 16.27 16.73 16.73C16.27 17.18 16.27 17.91 16.73 18.36L17.14 18.77C17.59 19.23 18.32 19.23 18.77 18.77C19.23 18.32 19.23 17.59 18.77 17.14L18.36 16.73ZM12.15 20.26C12.15 19.62 11.63 19.1 11 19.1C10.36 19.1 9.84 19.62 9.84 20.26L9.84 20.84C9.84 21.48 10.36 22 11 22C11.63 22 12.15 21.48 12.15 20.84L12.15 20.26ZM6.36 11C6.36 8.44 8.44 6.36 11 6.36C13.55 6.36 15.63 8.44 15.63 11C15.63 13.55 13.55 15.63 11 15.63C8.44 15.63 6.36 13.55 6.36 11ZM11 4.05C7.16 4.05 4.05 7.16 4.05 11C4.05 14.83 7.16 17.94 11 17.94C14.83 17.94 17.94 14.83 17.94 11C17.94 7.16 14.83 4.05 11 4.05Z" fill="#F7F7F7" fill-opacity="1.000000" fill-rule="evenodd"/>
</svg>
