<svg width="221.000000" height="174.000000" viewBox="0 0 221 174" fill="none" xmlns="http://www.w3.org/2000/svg" xmlns:xlink="http://www.w3.org/1999/xlink">
	<desc>
			Created with Pixso.
	</desc>
	<defs>
		<clipPath id="clip18_594">
			<rect id="Detective-check-footprint 1" width="221.000000" height="174.000000" fill="white" fill-opacity="0"/>
		</clipPath>
		<linearGradient x1="138.857849" y1="65.837624" x2="144.264404" y2="88.644714" id="paint_linear_18_670_0" gradientUnits="userSpaceOnUse">
			<stop stop-color="#FFFFFF"/>
			<stop offset="1.000000" stop-color="#000000"/>
		</linearGradient>
		<linearGradient x1="91.459488" y1="88.073982" x2="82.246910" y2="125.226288" id="paint_linear_18_696_0" gradientUnits="userSpaceOnUse">
			<stop stop-color="#FFFFFF"/>
			<stop offset="1.000000" stop-color="#000000"/>
		</linearGradient>
	</defs>
	<rect id="Detective-check-footprint 1" width="221.000000" height="174.000000" fill="#FFFFFF" fill-opacity="0"/>
	<g clip-path="url(#clip18_594)">
		<path id="Vector" d="M186.74 152.75C186.91 160.77 153.42 167.97 111.93 168.85C70.44 169.72 36.67 163.93 36.5 155.92C36.33 147.9 69.83 140.7 111.31 139.82C152.8 138.95 186.57 144.74 186.74 152.75Z" fill="#6C63FF" fill-opacity="1.000000" fill-rule="evenodd"/>
		<g opacity="0.700000">
			<path id="Vector" d="M186.74 152.75C186.91 160.77 153.42 167.97 111.93 168.85C70.44 169.72 36.67 163.93 36.5 155.92C36.33 147.9 69.83 140.7 111.31 139.82C152.8 138.95 186.57 144.74 186.74 152.75Z" fill="#FFFFFF" fill-opacity="1.000000" fill-rule="evenodd"/>
		</g>
		<path id="Vector" d="M194.92 105.92C194.92 105.92 218.61 83.61 205.59 53.98C201.98 45.75 196.13 38.69 188.85 33.39C172.56 21.52 131.35 -1.97 69.34 7.1C62.68 8.05 56.31 10.44 50.67 14.1C41.57 20.06 31.92 31 36.03 49.77C37.48 56.39 37.15 63.31 34.75 69.66C32.38 75.96 27.89 83.68 19.54 92.01C19.54 92.01 1.74 109.17 19.06 124.02C22.76 127.16 27.13 129.41 31.85 130.59C53.44 136.1 140.74 154.4 194.92 105.92Z" fill="#6C63FF" fill-opacity="1.000000" fill-rule="nonzero"/>
		<g opacity="0.700000">
			<path id="Vector" d="M194.92 105.92C194.92 105.92 218.61 83.61 205.59 53.98C201.98 45.75 196.13 38.69 188.85 33.39C172.56 21.52 131.35 -1.97 69.34 7.1C62.68 8.05 56.31 10.44 50.67 14.1C41.57 20.06 31.92 31 36.03 49.77C37.48 56.39 37.15 63.31 34.75 69.66C32.38 75.96 27.89 83.68 19.54 92.01C19.54 92.01 1.74 109.17 19.06 124.02C22.76 127.16 27.13 129.41 31.85 130.59C53.44 136.1 140.74 154.4 194.92 105.92Z" fill="#FFFFFF" fill-opacity="1.000000" fill-rule="nonzero"/>
		</g>
		<path id="Vector" d="M71.49 158.27C71.49 158.27 72.44 159.34 72.43 159.74C71.11 160.04 69.76 160.23 68.41 160.33C66.6 160.4 63.88 159.72 63.41 159.5C62.93 159.28 63.07 158.68 63.07 158.68C63.07 158.68 64.54 158.01 65.62 158.02C66.69 158.02 69.68 158.23 71.49 158.27Z" fill="#F1F1F1" fill-opacity="1.000000" fill-rule="nonzero"/>
		<path id="Vector" d="M73.32 159.66C73.32 159.66 72.99 158.69 72.35 158.24C72.35 158.24 74.57 157.87 75.57 158.6C76.57 159.34 74.21 159.57 73.32 159.66Z" fill="#F1F1F1" fill-opacity="1.000000" fill-rule="nonzero"/>
		<path id="Vector" d="M85.83 155.77C85.83 155.77 86.7 154.75 86.65 154.35C85.3 154.01 83.92 153.78 82.53 153.64C80.71 153.5 78.02 154.08 77.56 154.29C77.1 154.49 77.3 155.09 77.3 155.09C77.3 155.09 78.85 155.81 79.93 155.84C81.01 155.87 84.01 155.75 85.83 155.77Z" fill="#F1F1F1" fill-opacity="1.000000" fill-rule="nonzero"/>
		<path id="Vector" d="M87.55 154.46C87.55 154.46 87.3 155.41 86.7 155.83C86.7 155.83 88.97 156.28 89.92 155.58C90.86 154.88 88.46 154.57 87.55 154.46Z" fill="#F1F1F1" fill-opacity="1.000000" fill-rule="nonzero"/>
		<path id="Vector" d="M43.97 157.63L43.97 156.35C44.32 156.4 44.66 156.53 44.96 156.73C45.62 157.21 44.84 157.48 43.97 157.63Z" fill="#F1F1F1" fill-opacity="1.000000" fill-rule="nonzero"/>
		<path id="Vector" d="M54.42 155.6C54.42 155.6 55.2 154.5 55.12 154.11C53.75 153.88 52.35 153.75 50.96 153.73C49.13 153.73 46.5 154.53 46.06 154.77C45.61 155.01 45.85 155.6 45.85 155.6C45.85 155.6 47.46 156.19 48.53 156.13C49.61 156.07 52.61 155.72 54.42 155.6Z" fill="#F1F1F1" fill-opacity="1.000000" fill-rule="nonzero"/>
		<path id="Vector" d="M56.03 154.15C56.03 154.15 55.87 155.11 55.29 155.58C55.29 155.58 57.59 155.84 58.48 155.07C59.37 154.31 56.95 154.19 56.03 154.15Z" fill="#F1F1F1" fill-opacity="1.000000" fill-rule="nonzero"/>
		<path id="Vector" d="M101.04 159.1C101.04 159.1 102.06 160.09 102.09 160.49C100.79 160.88 99.46 161.18 98.11 161.38C96.33 161.58 93.56 161.12 93.07 160.93C92.58 160.73 92.66 160.13 92.66 160.13C92.66 160.13 94.09 159.37 95.15 159.28C96.22 159.19 99.23 159.19 101.04 159.1Z" fill="#F1F1F1" fill-opacity="1.000000" fill-rule="nonzero"/>
		<path id="Vector" d="M102.97 160.34C102.97 160.34 102.57 159.4 101.89 159C101.89 159 104.07 158.47 105.13 159.12C106.19 159.78 103.85 160.19 102.97 160.34Z" fill="#F1F1F1" fill-opacity="1.000000" fill-rule="nonzero"/>
		<path id="Vector" d="M114.46 156.35C114.46 156.35 115.39 155.37 115.36 154.97C114.03 154.55 112.67 154.23 111.29 154.01C109.48 153.76 106.76 154.19 106.29 154.36C105.82 154.54 105.97 155.15 105.97 155.15C105.97 155.15 107.48 155.96 108.56 156.05C109.63 156.15 112.64 156.22 114.46 156.35Z" fill="#F1F1F1" fill-opacity="1.000000" fill-rule="nonzero"/>
		<path id="Vector" d="M116.26 155.14C116.26 155.14 115.96 156.07 115.33 156.46C115.33 156.46 117.57 157.04 118.55 156.4C119.54 155.76 117.16 155.3 116.26 155.14Z" fill="#F1F1F1" fill-opacity="1.000000" fill-rule="nonzero"/>
		<path id="Vector" d="M129.9 158.27C129.9 158.27 130.86 159.34 130.85 159.74C129.52 160.04 128.17 160.24 126.82 160.33C125.02 160.4 122.29 159.72 121.81 159.5C121.34 159.28 121.48 158.68 121.48 158.68C121.48 158.68 122.95 158.01 124.03 158.02C125.11 158.02 128.09 158.23 129.9 158.27Z" fill="#F1F1F1" fill-opacity="1.000000" fill-rule="nonzero"/>
		<path id="Vector" d="M131.73 159.66C131.73 159.66 131.4 158.69 130.76 158.24C130.76 158.24 132.98 157.87 133.98 158.6C134.99 159.34 132.62 159.57 131.73 159.66Z" fill="#F1F1F1" fill-opacity="1.000000" fill-rule="nonzero"/>
		<path id="Vector" d="M143.46 157.46C143.46 157.46 144.24 156.37 144.16 155.98C142.78 155.75 141.39 155.62 139.99 155.59C138.16 155.6 135.53 156.4 135.09 156.64C134.64 156.88 134.89 157.46 134.89 157.46C134.89 157.46 136.49 158.05 137.57 157.99C138.64 157.94 141.62 157.6 143.46 157.46Z" fill="#F1F1F1" fill-opacity="1.000000" fill-rule="nonzero"/>
		<path id="Vector" d="M145.06 156.02C145.06 156.02 144.89 156.99 144.32 157.46C144.32 157.46 146.61 157.71 147.5 156.95C148.39 156.19 145.97 156.06 145.06 156.02Z" fill="#F1F1F1" fill-opacity="1.000000" fill-rule="nonzero"/>
		<path id="Vector" d="M158.68 159.21C158.68 159.21 159.63 160.28 159.62 160.67C158.3 160.97 156.95 161.17 155.59 161.26C153.79 161.34 151.07 160.66 150.59 160.44C150.12 160.22 150.25 159.62 150.25 159.62C150.25 159.62 151.73 158.95 152.81 158.95C153.88 158.96 156.87 159.17 158.68 159.21Z" fill="#F1F1F1" fill-opacity="1.000000" fill-rule="nonzero"/>
		<path id="Vector" d="M160.51 160.59C160.51 160.59 160.18 159.63 159.54 159.18C159.54 159.18 161.75 158.81 162.76 159.54C163.76 160.27 161.4 160.52 160.51 160.59Z" fill="#F1F1F1" fill-opacity="1.000000" fill-rule="nonzero"/>
		<path id="Vector" d="M171.61 156.74L171.61 158.46C169.79 158.6 167.3 158.89 166.33 158.94C165.26 158.99 163.65 158.41 163.65 158.41C163.65 158.41 163.4 157.82 163.85 157.58C164.31 157.34 166.92 156.55 168.76 156.54C169.71 156.54 170.67 156.61 171.61 156.74Z" fill="#F1F1F1" fill-opacity="1.000000" fill-rule="nonzero"/>
		<path id="Vector" d="M160.97 154.35C160.99 153.28 160.82 152.21 160.46 151.2C160.28 150.69 154.3 152.95 153.71 153.14C151.74 153.79 150.28 154.94 148.58 156.16C147.77 156.74 146.95 157.32 146.02 157.65C145.1 157.98 143.98 158.05 143.01 158.39C142.04 158.73 141.07 159.47 140.97 160.5C143.03 161.15 145.26 161.65 147.35 161.08C149.37 160.54 151 159.07 152.85 158.1C154.14 157.44 155.51 156.97 156.93 156.7C156.93 157.1 156.95 157.51 156.97 157.91C158.02 157.91 159.07 157.75 160.08 157.46C160.21 157.43 160.34 157.37 160.44 157.29C160.54 157.18 160.62 157.06 160.66 156.92C160.95 156.09 161.06 155.22 160.97 154.35Z" fill="#6C63FF" fill-opacity="1.000000" fill-rule="nonzero"/>
		<path id="Vector" d="M116.14 152.58C115.25 152.58 114.3 152.54 113.5 152.95C112.53 153.46 111.97 154.48 111.49 155.47C117.47 156.59 123.66 155.87 129.23 153.4C129.28 153.97 129.21 154.53 129.02 155.06C130.48 155.21 131.96 155.26 133.43 155.21C133.59 155.21 133.74 155.18 133.89 155.12C134.06 155.01 134.19 154.85 134.27 154.66C134.66 153.88 134.93 153.05 135.07 152.19C135.14 151.89 135.13 151.58 135.02 151.3C134.82 150.96 134.49 150.72 134.11 150.62C131.54 149.71 128.76 150.83 126.26 151.43C122.95 152.23 119.55 152.61 116.14 152.58Z" fill="#6C63FF" fill-opacity="1.000000" fill-rule="nonzero"/>
		<path id="Vector" d="M105.49 93.35C102.96 93.28 100.42 93.26 97.89 93.3C97.58 93.27 97.28 93.35 97.04 93.53C96.78 93.8 96.83 94.24 96.93 94.59C97.41 96.26 99.39 98.85 101.38 98.25C103.45 97.63 105.07 95.37 105.49 93.35Z" fill="#F7A48B" fill-opacity="1.000000" fill-rule="nonzero"/>
		<path id="Vector" d="M92.26 90.36L103.03 98.65C103.14 98.74 103.24 98.85 103.31 98.98C103.37 99.11 103.41 99.25 103.42 99.4C103.42 99.54 103.4 99.69 103.34 99.82C103.28 99.96 103.2 100.08 103.09 100.18C102.91 100.34 102.68 100.43 102.44 100.44C102.2 100.44 101.96 100.36 101.78 100.21L91.28 91.5L92.26 90.36Z" fill="#252525" fill-opacity="1.000000" fill-rule="nonzero"/>
		<path id="Vector" d="M106.51 89.98C105.58 90.3 104.3 90.66 103.48 91.2C102.66 91.75 101.93 90.58 101.09 90.33C100.2 90.07 99.4 90.25 98.48 90.39C97.33 90.55 96.46 91.15 95.53 91.86C94.58 92.56 93.51 93.07 92.36 93.34C91.76 95.32 96.58 93.87 97.19 93.75C97.84 93.63 98.32 93.61 98.93 93.89C100.37 94.57 101.01 94.71 102.66 94.55C103.7 95.23 105.02 95.77 106.1 94.64C106.72 93.99 107.89 93.36 108.41 92.69C108.72 92.3 108.75 92.57 108.44 91.83C108.07 90.9 107.35 90.5 106.51 89.98Z" fill="#F9B499" fill-opacity="1.000000" fill-rule="nonzero"/>
		<path id="Vector" d="M96.77 93.57C96.12 94.08 95.21 94.42 94.39 94.78C94.28 94.82 94.18 94.91 94.12 95.01C94.05 95.12 94.02 95.24 94.03 95.37C94.04 95.49 94.09 95.61 94.16 95.71C94.24 95.8 94.35 95.87 94.47 95.9C95.9 96.28 99.12 94.86 98.81 93.34C98.31 93.1 97.2 93.23 96.77 93.57Z" fill="#F9B499" fill-opacity="1.000000" fill-rule="nonzero"/>
		<path id="Vector" d="M95.62 95.54C95.3 96.01 95.2 97 95.62 97.43C96.95 98.8 99.26 96.59 100 95.6C101.49 93.6 99.14 94.07 97.99 94.6C97.32 94.9 96.53 95.21 95.62 95.54Z" fill="#F9B499" fill-opacity="1.000000" fill-rule="nonzero"/>
		<path id="Vector" d="M96.85 97.25C96.76 100.43 101.87 97.47 101.45 95.41C101.1 93.76 99.62 95.52 99.1 95.91C98.58 96.3 97.12 96.59 96.85 97.25Z" fill="#F9B499" fill-opacity="1.000000" fill-rule="nonzero"/>
		<path id="Vector" d="M98.81 98.07C99.6 100.3 102.77 97.75 102.42 96.03C102.27 95.32 101.86 95.04 101.21 95.58C100.86 95.87 100.72 96.38 100.42 96.71C100.01 97.17 98.83 97.46 98.81 98.07Z" fill="#F9B499" fill-opacity="1.000000" fill-rule="nonzero"/>
		<path id="Vector" d="M91.8 91.85C91.8 91.85 76.1 90.41 70.94 77.81L72.73 74.91C72.73 74.91 84.89 75.66 92.62 90.58L91.8 91.85Z" fill="#6C63FF" fill-opacity="1.000000" fill-rule="nonzero"/>
		<path id="Vector" d="M72.49 78.15C72.49 78.15 81.94 81.33 89.73 90.32C89.73 90.32 77.22 87.85 72.49 78.15Z" fill="#E5E5E5" fill-opacity="1.000000" fill-rule="nonzero"/>
		<g opacity="0.300000">
			<path id="Vector" d="M77.89 77.11C77.36 76.86 76.8 76.63 76.21 76.41L75.08 78.26C75.66 78.47 76.25 78.7 76.86 78.94L77.89 77.11Z" fill="#FFFFFF" fill-opacity="1.000000" fill-rule="nonzero"/>
			<path id="Vector" d="M78.41 77.37L77.35 79.15C78.78 79.73 80.16 80.41 81.5 81.17L82.05 79.92C80.95 78.92 79.73 78.06 78.41 77.37Z" fill="#FFFFFF" fill-opacity="1.000000" fill-rule="nonzero"/>
			<path id="Vector" d="M82.55 81.81C83.13 82.17 83.68 82.57 84.21 83L84.62 82.49C84.08 81.89 83.55 81.34 83.04 80.84L82.55 81.81Z" fill="#FFFFFF" fill-opacity="1.000000" fill-rule="nonzero"/>
		</g>
		<path id="Vector" d="M111.59 93.41C110.73 93.86 109.72 94.07 108.87 94.52C108.07 92.74 107.07 91.06 105.88 89.51L108.02 88.26C109.13 89.97 110.49 91.69 111.59 93.41Z" fill="#FFFFFF" fill-opacity="1.000000" fill-rule="nonzero"/>
		<path id="Vector" d="M139.47 105.42C132.38 109.03 124.27 110.11 116.48 108.49C117.35 101.42 116.42 94.27 115.49 87.21C114.62 80.61 113.74 74.01 112.87 67.41C112.52 64.69 111.37 61.72 111.16 58.98C110.95 56.24 112.01 53.06 114.61 52.14C116.91 51.32 119.42 52.6 121.33 54.13C127.8 59.35 131.03 67.53 133.45 75.47C136.4 85.14 138.11 95.4 139.47 105.42Z" fill="#6C63FF" fill-opacity="1.000000" fill-rule="nonzero"/>
		<g opacity="0.200000">
			<path id="Vector" d="M139.47 105.42C132.38 109.03 124.27 110.11 116.48 108.49C117.35 101.42 116.42 94.27 115.49 87.21C114.62 80.61 113.74 74.01 112.87 67.41C112.52 64.69 111.37 61.72 111.16 58.98C110.95 56.24 112.01 53.06 114.61 52.14C116.91 51.32 119.42 52.6 121.33 54.13C127.8 59.35 131.03 67.53 133.45 75.47C136.4 85.14 138.11 95.4 139.47 105.42Z" fill="#000000" fill-opacity="1.000000" fill-rule="nonzero"/>
		</g>
		<path id="Vector" d="M135.92 94.33C134.03 102.88 132.9 111.57 132.53 120.32C132.41 123.06 132.37 125.82 132.04 128.55C131.61 132.15 130.68 135.68 129.76 139.18C128.74 143.08 127.71 146.99 126.67 150.9C128.73 151.47 130.83 151.9 132.95 152.17C134.51 152.38 136.09 152.41 137.65 152.25C141.97 151.75 145.85 149.13 150.18 148.75C150.16 141.66 150.14 134.57 149.75 127.48C149.47 122.5 149.01 117.53 148.38 112.57C147.89 108.78 147.3 104.99 146.26 101.31C145.81 99.72 145.25 98.11 144.22 96.8C142.42 94.51 138.72 93.49 135.92 94.33Z" fill="#252525" fill-opacity="1.000000" fill-rule="nonzero"/>
		<g opacity="0.200000">
			<path id="Vector" d="M135.92 94.33C134.03 102.88 132.9 111.57 132.53 120.32C132.41 123.06 132.37 125.82 132.04 128.55C131.61 132.15 130.68 135.68 129.76 139.18C128.74 143.08 127.71 146.99 126.67 150.9C128.73 151.47 130.83 151.9 132.95 152.17C134.51 152.38 136.09 152.41 137.65 152.25C141.97 151.75 145.85 149.13 150.18 148.75C150.16 141.66 150.14 134.57 149.75 127.48C149.47 122.5 149.01 117.53 148.38 112.57C147.89 108.78 147.3 104.99 146.26 101.31C145.81 99.72 145.25 98.11 144.22 96.8C142.42 94.51 138.72 93.49 135.92 94.33Z" fill="#000000" fill-opacity="1.000000" fill-rule="nonzero"/>
		</g>
		<g opacity="0.200000">
			<path id="Vector" d="M148.84 116.4C148.7 115.12 148.54 113.84 148.38 112.58C147.89 108.79 147.3 105 146.26 101.32C145.81 99.73 145.25 98.12 144.22 96.81C142.41 94.52 138.71 93.5 135.91 94.34C135.01 98.44 134.28 102.59 133.72 106.76C137.96 111.07 143.18 114.2 148.84 116.4Z" fill="#000000" fill-opacity="1.000000" fill-rule="nonzero"/>
		</g>
		<path id="Vector" d="M165.38 149.86L160.41 152.06C159.49 152.47 158.56 152.88 157.6 153.21C155.28 154 152.82 154.28 150.38 154.01C149.52 151.21 148.65 148.41 147.78 145.6C147.16 143.6 146.54 141.59 146.12 139.54C145.59 136.94 145.37 134.28 145.16 131.64L143.47 110.67C148.83 105.52 154.72 101.62 161.7 99.06C162.36 98.8 163.07 98.59 163.75 98.74C165.2 104.92 165.24 111.36 163.88 117.56C163.42 119.6 162.82 121.62 162.55 123.69C162.12 127.07 162.57 130.49 163.03 133.86C163.72 139.03 164.68 144.69 165.38 149.86Z" fill="#252525" fill-opacity="1.000000" fill-rule="nonzero"/>
		<g opacity="0.200000">
			<path id="Vector" d="M163.64 118.56C163.72 118.23 163.8 117.9 163.87 117.56C165.25 111.36 165.21 104.93 163.76 98.74C163.08 98.59 162.37 98.82 161.72 99.06C154.74 101.61 148.83 105.52 143.48 110.67L143.99 116.98C150.43 117.98 157.06 118.71 163.64 118.56Z" fill="#000000" fill-opacity="1.000000" fill-rule="nonzero"/>
		</g>
		<path id="Vector" d="M123.72 79.33C124.37 84.47 123.53 90.33 120.56 91.81C117.58 93.3 114.12 93.85 110.83 94.29C109.53 92.2 108.18 90.31 106.88 88.22C110.37 85.19 115.59 82.54 116.4 78C116.99 74.73 116.86 71.37 116.01 68.16C119.62 73.69 120.66 73.47 123.72 79.33Z" fill="#252525" fill-opacity="1.000000" fill-rule="nonzero"/>
		<g opacity="0.200000">
			<path id="Vector" d="M123.72 79.33C124.37 84.47 123.53 90.33 120.56 91.81C117.58 93.3 114.12 93.85 110.83 94.29C109.53 92.2 108.18 90.31 106.88 88.22C110.37 85.19 115.59 82.54 116.4 78C116.99 74.73 116.86 71.37 116.01 68.16C119.62 73.69 120.66 73.47 123.72 79.33Z" fill="#000000" fill-opacity="1.000000" fill-rule="nonzero"/>
		</g>
		<path id="Vector" d="M135.07 89.87C133.28 91.59 130.76 92.45 128.28 92.39C126.2 86.72 122.62 81.74 119.39 76.63C116.15 71.51 113.18 66.02 112.54 60.01C112.38 58.48 111.19 57.12 111.07 55.59C110.94 54.05 111.47 52.37 112.76 51.51C114.05 50.65 115.9 50.87 117.26 51.67C118.63 52.48 119.62 53.76 120.54 55.05C127.84 65.29 131.65 77.78 135.07 89.87Z" fill="#252525" fill-opacity="1.000000" fill-rule="nonzero"/>
		<path id="Vector" d="M119.55 70.69C119.27 65.46 118.93 59.99 116.29 55.45C115.72 54.46 114.97 53.47 113.9 53.07C109.19 51.28 112.01 59.36 112.7 61.1C114.15 64.81 116.51 68.11 119.55 70.69Z" fill="#FFFFFF" fill-opacity="1.000000" fill-rule="nonzero"/>
		<path id="Vector" d="M110.38 52.62C109.62 55.06 109.48 57.65 109.96 60.15C111.32 67.18 113.61 74.68 114.52 81.78C116.63 71.89 115.1 60.65 110.48 51.66C110.48 51.99 110.44 52.31 110.38 52.62Z" fill="#6C63FF" fill-opacity="1.000000" fill-rule="nonzero"/>
		<g opacity="0.400000">
			<path id="Vector" d="M110.38 52.62C109.62 55.06 109.48 57.65 109.96 60.15C111.32 67.18 113.61 74.68 114.52 81.78C116.63 71.89 115.1 60.65 110.48 51.66C110.48 51.99 110.44 52.31 110.38 52.62Z" fill="#000000" fill-opacity="1.000000" fill-rule="nonzero"/>
		</g>
		<path id="Vector" d="M113.43 36.27C113.43 36.27 109.05 40.32 106.57 40.07C104.1 39.82 105.2 34.8 105.2 34.8C105.2 34.8 110.73 34.31 113.43 36.27Z" fill="#6C63FF" fill-opacity="1.000000" fill-rule="nonzero"/>
		<g opacity="0.200000">
			<path id="Vector" d="M113.43 36.27C113.43 36.27 109.05 40.32 106.57 40.07C104.1 39.82 105.2 34.8 105.2 34.8C105.2 34.8 110.73 34.31 113.43 36.27Z" fill="#000000" fill-opacity="1.000000" fill-rule="nonzero"/>
		</g>
		<path id="Vector" d="M107.63 40.3C111.3 46.63 110.38 54.01 105.59 56.77C100.79 59.53 93.94 56.64 90.27 50.3C86.61 43.97 87.52 36.59 92.32 33.83C97.11 31.07 103.97 33.96 107.63 40.3Z" fill="#F9B499" fill-opacity="1.000000" fill-rule="evenodd"/>
		<path id="Vector" d="M96 58.52L95.88 57.75C96.07 58.02 96.32 58.24 96.6 58.4L96.64 57.74C96.76 57.86 96.91 57.95 97.08 58C97.24 58.05 97.42 58.06 97.59 58.02C97.93 57.94 98.25 57.8 98.54 57.62C98.79 57.49 99.01 57.32 99.19 57.11C99.27 57 99.32 56.87 99.34 56.73C99.35 56.6 99.32 56.46 99.25 56.34L100.06 57.09L99.6 55.74L100.16 56.33C100.35 56.54 100.58 56.72 100.83 56.84C100.96 56.89 101.11 56.91 101.24 56.88C101.38 56.84 101.51 56.77 101.6 56.67C101.85 56.31 101.54 55.83 101.21 55.54C100.41 54.85 99.46 54.35 98.43 54.08C97.41 53.82 96.34 53.79 95.3 54.01C94.93 54.09 93.93 54.3 93.74 54.68C93.62 54.94 93.94 55.68 94.05 55.96C94.25 56.46 94.52 56.94 94.85 57.37C95.04 57.6 95.98 58.28 96 58.52Z" fill="#252525" fill-opacity="1.000000" fill-rule="nonzero"/>
		<path id="Vector" d="M92.28 41.17C92.74 42.24 93.42 43.31 94.49 43.8C95.19 44.11 95.97 44.14 96.73 44.14C97.64 44.14 98.56 44.1 99.47 44.04C100.75 45.42 101.84 46.88 102.55 48.62C103.25 48.21 104.04 47.67 104.74 47.26C104.02 45.7 103.41 44.03 102.69 42.47C104.68 43.93 107.54 44.27 109.87 43.43C108.35 40.28 106.44 37.35 103.96 34.9L92.28 41.17Z" fill="#252525" fill-opacity="1.000000" fill-rule="nonzero"/>
		<path id="Vector" d="M103.56 43.71C102.93 42.86 102.4 41.92 102 40.93C101.79 40.4 102.15 39.69 102.39 39.16C102.51 38.9 102.68 38.66 102.9 38.47C103.12 38.28 103.37 38.14 103.65 38.06C103.92 38.03 104.19 38.1 104.4 38.26C105.39 39.24 105.66 40.72 105.81 42.11C105.89 42.67 105.89 43.23 105.81 43.8C105.73 44.36 105.42 44.87 104.97 45.22C104.43 44.78 103.96 44.28 103.56 43.71Z" fill="#F7B595" fill-opacity="1.000000" fill-rule="nonzero"/>
		<path id="Vector" d="M106.57 35.74C106.57 35.74 111.22 35.53 113.43 36.27C113.43 36.27 111.84 33.21 104.59 33.33C97.34 33.44 106.57 35.74 106.57 35.74Z" fill="#6C63FF" fill-opacity="1.000000" fill-rule="nonzero"/>
		<path id="Vector" d="M106.57 35.74C98.63 36.74 91.12 42.58 88.83 50.23C88.09 49.98 87.51 49.27 86.91 48.77C85.09 47.26 82.53 46.11 82.3 43.77C81.92 40 82.86 36.24 83.8 32.57C86.1 30.55 88.58 28.12 91.58 27.54C95.13 26.85 98.69 28.35 101.98 29.83C103.24 30.39 104.23 31.5 105.01 32.6C105.15 32.8 106.7 35.73 106.57 35.74Z" fill="#6C63FF" fill-opacity="1.000000" fill-rule="nonzero"/>
		<g opacity="0.300000">
			<path id="Vector" d="M106.57 35.74C98.63 36.74 91.12 42.58 88.83 50.23C88.09 49.98 87.51 49.27 86.91 48.77C85.09 47.26 82.53 46.11 82.3 43.77C81.92 40 82.86 36.24 83.8 32.57C86.1 30.55 88.58 28.12 91.58 27.54C95.13 26.85 98.69 28.35 101.98 29.83C103.24 30.39 104.23 31.5 105.01 32.6C105.15 32.8 106.7 35.73 106.57 35.74Z" fill="#FFFFFF" fill-opacity="1.000000" fill-rule="nonzero"/>
		</g>
		<path id="Vector" d="M101.98 29.83C98.69 28.35 95.13 26.85 91.58 27.54C90.02 27.84 88.6 28.65 87.27 29.64C86.52 30.66 85.86 31.74 85.3 32.86C84.04 35.44 83.4 38.4 84 41.2C84.69 44.38 86.84 46.96 89.14 49.31C90.84 44.6 94.54 40.65 99.02 38.21C97.95 34.99 96.66 31.84 95.17 28.79C97.41 29.64 99.63 30.5 101.85 31.38C102.96 31.82 104.08 32.28 105.15 32.83C105.08 32.71 105.03 32.63 105.01 32.6C104.23 31.5 103.24 30.4 101.98 29.83Z" fill="#6C63FF" fill-opacity="1.000000" fill-rule="nonzero"/>
		<path id="Vector" d="M95.17 28.79C96.66 31.84 97.94 34.99 99.02 38.21C101.36 36.93 103.92 36.1 106.57 35.75C106.68 35.73 105.55 33.58 105.14 32.84C104.08 32.29 102.96 31.82 101.84 31.38C99.63 30.5 97.41 29.64 95.17 28.79Z" fill="#6C63FF" fill-opacity="1.000000" fill-rule="nonzero"/>
		<g opacity="0.200000">
			<path id="Vector" d="M94.14 41.85C92.99 39.41 91.03 37.46 88.98 35.71C88.12 34.96 87.15 34.21 86.01 34.11C85.09 34.03 84 34.42 83.58 35.24C85.53 36.19 87.23 37.08 88.96 38.46C89.82 39.15 90.65 39.87 91.55 40.48C91.98 40.76 93.97 41.5 94.14 41.85Z" fill="#000000" fill-opacity="1.000000" fill-rule="nonzero"/>
		</g>
		<path id="Vector" d="M86.91 48.77L87.64 54.66C87.64 54.66 89.49 52.41 89.92 47.47C89.92 47.47 88.02 47.54 86.91 48.77Z" fill="#6C63FF" fill-opacity="1.000000" fill-rule="nonzero"/>
		<path id="Vector" d="M100.58 37.54C98.64 39.42 96.38 40.95 93.91 42.06C91.96 40.15 89.72 37.83 87.18 36.83C86.52 36.58 85.86 36.36 85.18 36.18L82.93 35.54C82.87 34.1 83.13 32.67 83.69 31.35C84.14 30.29 85.45 29.62 86.37 28.93C88.43 27.4 91.83 27.06 94.39 27.35C95.51 28.99 100.43 36.06 100.8 37.08C100.8 36.98 100.59 37.65 100.58 37.54Z" fill="#6C63FF" fill-opacity="1.000000" fill-rule="nonzero"/>
		<g opacity="0.300000">
			<path id="Vector" d="M100.58 37.54C98.64 39.42 96.38 40.95 93.91 42.06C91.96 40.15 89.72 37.83 87.18 36.83C86.52 36.58 85.86 36.36 85.18 36.18L82.93 35.54C82.87 34.1 83.13 32.67 83.69 31.35C84.14 30.29 85.45 29.62 86.37 28.93C88.43 27.4 91.83 27.06 94.39 27.35C95.51 28.99 100.43 36.06 100.8 37.08C100.8 36.98 100.59 37.65 100.58 37.54Z" fill="#FFFFFF" fill-opacity="1.000000" fill-rule="nonzero"/>
		</g>
		<path id="Vector" d="M94.39 27.36C94.02 27.32 93.63 27.29 93.23 27.28C92.56 27.37 91.9 27.51 91.25 27.69C88.75 28.4 86.4 29.9 85.07 32.13C86.98 30.36 89.33 29.14 91.87 28.58C89.27 30.31 86.58 32.15 85 34.83C88.06 34.94 90.42 37.48 92.39 39.82C92.99 40.51 93.56 41.23 94.08 41.98C96.48 40.88 98.68 39.38 100.58 37.54C100.58 37.65 100.77 37.07 100.8 37.08C100.4 36.02 95.52 28.99 94.39 27.36Z" fill="#6C63FF" fill-opacity="1.000000" fill-rule="nonzero"/>
		<path id="Vector" d="" fill="#6C63FF" fill-opacity="1.000000" fill-rule="nonzero"/>
		<path id="Vector" d="M114.42 56.11C112.41 55.57 110.32 55.33 108.24 55.16C108.65 50.3 109.05 45.43 109.46 40.57C110.74 40.44 111.96 40.43 113.19 40.81C114.41 45.6 114.7 51.17 114.42 56.11Z" fill="#FFFFFF" fill-opacity="1.000000" fill-rule="nonzero"/>
		<path id="Vector" d="M112.09 46.91C111.98 49.36 111.94 51.89 112.85 54.16C113.76 56.43 115.88 58.4 118.34 58.39L115.07 43.77C114.86 42.83 114.64 41.87 114.14 41.04C113.1 39.29 111.76 39.24 111.99 41.41C112.16 43.23 112.19 45.07 112.09 46.91Z" fill="#402C35" fill-opacity="1.000000" fill-rule="nonzero"/>
		<path id="Vector" d="M113.45 40.53C113.86 46.19 113.89 51.86 113.56 57.52C120.92 65.53 126.48 74.96 130.27 85.16C134.05 95.35 136.51 105.98 138.94 116.57C144.88 117.24 150.1 113.87 154.77 110.15C159.45 106.43 163.84 102.08 169.45 100.03C167.81 92.79 166.17 85.31 163.37 78.45C161.29 73.41 158.84 68.4 154.98 64.54C151.47 61.05 147 58.7 142.61 56.42C132.95 51.38 123.1 45.57 113.45 40.53Z" fill="#6C63FF" fill-opacity="1.000000" fill-rule="nonzero"/>
		<mask id="mask18_668" mask-type="alpha" maskUnits="userSpaceOnUse" x="113.463867" y="40.538589" width="50.757324" height="44.472698">
			<g style="mix-blend-mode:multiply">
				<path id="Vector" d="M163.37 78.45C161.29 73.41 158.84 68.4 154.98 64.54C151.47 61.05 147 58.7 142.61 56.42C132.96 51.38 123.11 45.57 113.46 40.53C113.74 44.4 113.85 48.27 113.78 52.14C114.51 53.31 115.24 54.49 115.98 55.68C117.46 58.09 119.76 59.87 122.01 61.61C124.68 63.66 127.37 65.73 130.44 67.1C132.81 68.17 135.35 68.79 137.81 69.65C145.89 72.52 152.83 77.9 157.62 85.01C159.88 83.65 162.08 82.2 164.22 80.66C163.94 79.92 163.66 79.18 163.37 78.45Z" fill="url(#paint_linear_18_670_0)" fill-opacity="1.000000" fill-rule="nonzero"/>
			</g>
		</mask>
		<g mask="url(#mask18_668)">
			<g opacity="0.100000">
				<path id="Vector" d="M163.37 78.45C161.29 73.41 158.84 68.4 154.98 64.54C151.47 61.05 147 58.7 142.61 56.42C132.96 51.38 123.11 45.57 113.46 40.53C113.74 44.4 113.85 48.27 113.78 52.14C114.51 53.31 115.24 54.49 115.98 55.68C117.46 58.09 119.76 59.87 122.01 61.61C124.68 63.66 127.37 65.73 130.44 67.1C132.81 68.17 135.35 68.79 137.81 69.65C145.89 72.52 152.83 77.9 157.62 85.01C159.88 83.65 162.08 82.2 164.22 80.66C163.94 79.92 163.66 79.18 163.37 78.45Z" fill="#FFFFFF" fill-opacity="1.000000" fill-rule="nonzero"/>
			</g>
		</g>
		<path id="Vector" d="M124.34 70.93C125.01 70.39 125.07 69.46 124.72 68.73C124.38 68.01 123.72 67.43 123.07 66.87C122.42 66.32 121.76 65.73 121.43 65.01C121.09 64.28 121.17 63.35 121.84 62.82C121.89 62.79 121.94 62.77 121.99 62.77C122.05 62.78 122.1 62.8 122.14 62.84C121.92 63.48 121.7 64.18 122 64.8C122.35 65.51 123.26 65.85 123.99 66.28C125.66 67.26 126.69 69.18 125.96 70.8C125.9 70.98 125.78 71.15 125.63 71.28C125.48 71.41 125.3 71.5 125.1 71.55C124.68 71.59 124.03 71.18 124.34 70.93Z" fill="#252525" fill-opacity="1.000000" fill-rule="nonzero"/>
		<path id="Vector" d="M120.76 72.4C121.82 73.95 123.36 75.1 125.14 75.69C125.63 75.87 126.15 75.93 126.66 75.87C126.91 75.84 127.16 75.74 127.36 75.58C127.56 75.43 127.72 75.22 127.82 74.98C128.03 74.37 127.67 73.71 127.33 73.16C126.63 72.08 125.91 71.01 125.16 69.97L120.76 72.4Z" fill="#6C63FF" fill-opacity="1.000000" fill-rule="nonzero"/>
		<g opacity="0.300000">
			<path id="Vector" d="M120.76 72.4C121.82 73.95 123.36 75.1 125.14 75.69C125.63 75.87 126.15 75.93 126.66 75.87C126.91 75.84 127.16 75.74 127.36 75.58C127.56 75.43 127.72 75.22 127.82 74.98C128.03 74.37 127.67 73.71 127.33 73.16C126.63 72.08 125.91 71.01 125.16 69.97L120.76 72.4Z" fill="#FFFFFF" fill-opacity="1.000000" fill-rule="nonzero"/>
		</g>
		<path id="Vector" d="M135.1 70.93C134.58 71.35 132.83 72.1 132.23 71.83C131.76 71.62 131.68 70.9 131.16 70.7C130.18 70.33 128.99 71.15 128.13 71.47C127.35 71.75 125.16 71.37 125.3 72.37C125.48 73.64 128.2 73.84 129.2 73.8C128 74.29 126.88 74.92 125.68 75.35C124.2 74.75 123.45 73.93 121.76 74.14C121.49 75.23 123.5 75.74 124.11 76.41C124.47 76.81 124.57 77.25 125.12 77.4C125.56 77.52 126.71 77.4 127.16 77.23C127.42 78.16 128.17 78.13 128.96 78.13C129.37 78.13 129.55 78.68 129.94 78.78C130.26 78.87 130.67 78.68 131.01 78.7C132.91 78.83 133.94 76.81 135.02 76.17C135.77 75.73 136.94 74.89 137.73 74.71C137.44 73.73 135.15 71.12 135.1 70.93Z" fill="#F9B499" fill-opacity="1.000000" fill-rule="nonzero"/>
		<g opacity="0.300000">
			<path id="Vector" d="M125.16 69.97L120.76 72.4C120.96 72.69 121.18 72.97 121.41 73.23C122.84 72.39 124.31 71.61 125.8 70.88C125.59 70.57 125.37 70.27 125.16 69.97Z" fill="#FFFFFF" fill-opacity="1.000000" fill-rule="nonzero"/>
		</g>
		<path id="Vector" d="M139.73 74.65C138.91 75.02 137.97 75.5 137.15 75.87C136.22 74.1 135.25 72.5 134.32 70.74L137 69.69C138.02 71.26 138.7 73.08 139.73 74.65Z" fill="#FFFFFF" fill-opacity="1.000000" fill-rule="nonzero"/>
		<path id="Vector" d="M153.41 72.44C149.2 74.85 144.41 76.09 139.56 76.02C138.11 73.92 136.44 71.97 135.27 69.7C137.7 68 140.03 66.15 142.24 64.17C146.79 65.34 151.29 68.26 153.41 72.44Z" fill="#252525" fill-opacity="1.000000" fill-rule="nonzero"/>
		<path id="Vector" d="M166.99 76.63L162.32 65.59C161.06 62.62 159.73 59.54 157.32 57.4C154.25 54.68 149.98 53.89 146.34 51.98C140.84 49.08 136.96 43.66 131.36 40.94C125.46 38.07 118.67 38.66 112.13 39.25C114.66 44.08 112.47 50.23 114.55 55.27C115.95 58.67 119.16 61.08 122.61 62.4C126.05 63.72 129.78 64.08 133.45 64.48C137.11 64.89 140.85 65.37 144.21 66.88C150.81 69.84 155.05 76.26 158.93 82.36C161.83 81.04 164.93 79.03 166.99 76.63Z" fill="#6C63FF" fill-opacity="1.000000" fill-rule="nonzero"/>
		<g opacity="0.400000">
			<path id="Vector" d="M166.99 76.63L162.32 65.59C161.06 62.62 159.73 59.54 157.32 57.4C154.25 54.68 149.98 53.89 146.34 51.98C140.84 49.08 136.96 43.66 131.36 40.94C125.46 38.07 118.67 38.66 112.13 39.25C114.66 44.08 112.47 50.23 114.55 55.27C115.95 58.67 119.16 61.08 122.61 62.4C126.05 63.72 129.78 64.08 133.45 64.48C137.11 64.89 140.85 65.37 144.21 66.88C150.81 69.84 155.05 76.26 158.93 82.36C161.83 81.04 164.93 79.03 166.99 76.63Z" fill="#000000" fill-opacity="1.000000" fill-rule="nonzero"/>
		</g>
		<g opacity="0.200000">
			<path id="Vector" d="M119.42 56.56C121.4 55.63 123.25 54.46 124.95 53.09C123.56 51.91 122.82 50.16 122.14 48.48L118.17 38.79C116.16 38.87 114.15 39.05 112.15 39.24C114.68 44.06 112.49 50.21 114.56 55.25C115.97 58.66 119.17 61.06 122.62 62.39C124.81 63.22 127.12 63.66 129.45 63.99C125.72 62.07 122.27 59.74 119.42 56.56Z" fill="#000000" fill-opacity="1.000000" fill-rule="nonzero"/>
		</g>
		<path id="Vector" d="M111.58 38.53C111.69 42.84 111.57 48.32 112.82 52.44C114.07 56.57 116.52 59.4 120.37 61.36C118.93 59.76 118.29 57.43 118.23 55.28C119.73 55.05 121.27 54.21 122.43 53.23C120.38 48.45 118.6 43.34 117.59 38.24L111.58 38.53Z" fill="#6C63FF" fill-opacity="1.000000" fill-rule="nonzero"/>
		<g opacity="0.300000">
			<path id="Vector" d="M111.58 38.53C111.69 42.84 111.57 48.32 112.82 52.44C114.07 56.57 116.52 59.4 120.37 61.36C118.93 59.76 118.29 57.43 118.23 55.28C119.73 55.05 121.27 54.21 122.43 53.23C120.38 48.45 118.6 43.34 117.59 38.24L111.58 38.53Z" fill="#FFFFFF" fill-opacity="1.000000" fill-rule="nonzero"/>
		</g>
		<g opacity="0.200000">
			<path id="Vector" d="M127.5 59.65C132.08 60.36 136.67 58.88 141.23 58.1C145.79 57.32 151 57.39 154.39 60.54C151.07 59.73 147.12 58.91 143.7 59.15C142.36 59.24 141.03 59.49 139.7 59.71C135.58 60.38 131.41 61.09 127.5 59.65Z" fill="#000000" fill-opacity="1.000000" fill-rule="nonzero"/>
		</g>
		<g opacity="0.200000">
			<path id="Vector" d="M149.86 55.62C147.87 55.08 145.79 55.01 143.77 55.4C140.36 56.07 137.25 58.04 133.79 58.23C138.32 57.37 143.2 56.72 147.73 55.86C148.48 55.71 149.15 55.33 149.86 55.62Z" fill="#000000" fill-opacity="1.000000" fill-rule="nonzero"/>
		</g>
		<g opacity="0.200000">
			<path id="Vector" d="M158.06 74.76C155.94 71.04 153.02 67.83 149.53 65.35C151.57 66.17 153.4 67.45 154.88 69.08C156.35 70.71 157.44 72.65 158.06 74.76Z" fill="#000000" fill-opacity="1.000000" fill-rule="nonzero"/>
		</g>
		<mask id="mask18_694" mask-type="alpha" maskUnits="userSpaceOnUse" x="44.520996" y="78.159729" width="61.121094" height="75.955711">
			<g style="mix-blend-mode:multiply">
				<path id="Vector" d="M72.49 78.15L44.52 154.11L105.64 154.11L89.73 90.32L72.49 78.15Z" fill="url(#paint_linear_18_696_0)" fill-opacity="1.000000" fill-rule="nonzero"/>
			</g>
		</mask>
		<g mask="url(#mask18_694)">
			<g opacity="0.500000">
				<path id="Vector" d="M72.49 78.15L44.52 154.11L105.64 154.11L89.73 90.32L72.49 78.15Z" fill="#E5E5E5" fill-opacity="1.000000" fill-rule="nonzero"/>
			</g>
		</g>
		<path id="Vector" d="M98.5 94.38C97.59 95.1 96.56 95.64 95.45 95.95" stroke="#F7A48B" stroke-opacity="1.000000" stroke-width="1.000000"/>
		<path id="Vector" d="M100.46 94.82C99.47 96.03 98.28 97.04 96.93 97.82" stroke="#F7A48B" stroke-opacity="1.000000" stroke-width="1.000000"/>
		<path id="Vector" d="M98.98 98.44C98.98 98.44 100.79 97.39 101.44 95.41" stroke="#F7A48B" stroke-opacity="1.000000" stroke-width="1.000000"/>
	</g>
</svg>
